<svg xmlns="http://www.w3.org/2000/svg" xmlns:xlink="http://www.w3.org/1999/xlink" width="16" height="16" version="1.1" style=""><rect id="backgroundrect" width="100%" height="100%" x="0" y="0" fill="none" stroke="none"/>

<g class="currentLayer" style=""><title>Layer 1</title><g id="surface1" class="selected">
<path style=" stroke:none;fill-rule:nonzero;fill:rgb(48.627451%,48.627451%,48.627451%);fill-opacity:1;" d="M15.94140625,13.968750476837158 C15.58203125,13.835937023162842 15.25390625,13.750000476837158 14.953125,13.710937023162842 C14.65234375,13.683593273162842 14.429688453674316,13.609373569488525 14.289061546325684,13.488280773162842 C14.20703125,13.437500476837158 14.09375,13.253905773162842 13.953125,12.941405773162842 C13.6875,12.414062023162842 13.48046875,11.937500476837158 13.328125,11.507812023162842 C13.078125,10.828123569488525 12.867188453674316,10.300780773162842 12.703125,9.929687023162842 C12.335938453674316,9.078123569488525 12.02734375,8.324218273162842 11.77734375,7.671873569488525 C11.64453125,7.320312023162842 11.24609375,6.367187023162842 10.585938453674316,4.81640625 L8.617188453674316,0.1992180347442627 L8.507811546325684,0 L7.277344226837158,0 L4.585937976837158,6.960937023162842 L2.308593988418579,12.882812023162842 C2.128906011581421,13.214843273162842 1.972656011581421,13.433593273162842 1.847656011581421,13.535155773162842 C1.7109379768371582,13.632812023162842 1.359375,13.730468273162842 0.7890620231628418,13.835937023162842 C0.4179689884185791,13.906250476837158 0.1601559966802597,13.960937023162842 0.01953119970858097,14.007812023162842 L0,14.765623569488525 L0.203125,14.765623569488525 C0.7539060115814209,14.765623569488525 1.2890620231628418,14.722655773162842 1.808593988418579,14.632812023162842 L2.269531011581421,14.554687023162842 C4.082030773162842,14.683593273162842 5.203125,14.750000476837158 5.625,14.750000476837158 C5.636719226837158,14.683593273162842 5.644530773162842,14.597655773162842 5.644530773162842,14.488280773162842 C5.644530773162842,14.296873569488525 5.640625,14.109373569488525 5.632812023162842,13.929687023162842 C5.5,13.910155773162842 5.371094226837158,13.890623569488525 5.246094226837158,13.875000476837158 C5.121094226837158,13.855468273162842 5.023437976837158,13.839843273162842 4.957030773162842,13.824218273162842 C4.890625,13.812500476837158 4.847655773162842,13.804687023162842 4.828125,13.804687023162842 C4.332030773162842,13.734373569488525 4.003905773162842,13.632812023162842 3.835937976837158,13.500000476837158 C3.726562023162842,13.421873569488525 3.671875,13.285155773162842 3.671875,13.085937023162842 C3.671875,12.957030773162842 3.746093988418579,12.687500476837158 3.894531011581421,12.277343273162842 C4.375,10.937500476837158 4.707030773162842,10.058593273162842 4.894530773162842,9.644530773162842 L9.22265625,9.660155773162842 L10.10546875,11.855468273162842 L10.55859375,12.949218273162842 C10.59765625,13.058593273162842 10.617188453674316,13.160155773162842 10.617188453674316,13.257812023162842 C10.617188453674316,13.355468273162842 10.578125,13.441405773162842 10.5,13.515623569488525 C10.421875,13.582030773162842 10.20703125,13.656250476837158 9.84765625,13.738280773162842 L8.585938453674316,14.007812023162842 C8.5625,14.218750476837158 8.546875,14.468750476837158 8.546875,14.757812023162842 L9.10546875,14.738280773162842 L11.02734375,14.632812023162842 C11.38671875,14.621093273162842 11.820311546325684,14.613280773162842 12.328125,14.613280773162842 C12.94140625,14.613280773162842 13.546875,14.640623569488525 14.14453125,14.691405773162842 C14.86328125,14.742187023162842 15.476561546325684,14.765623569488525 15.992188453674316,14.765623569488525 C15.99609375,14.691405773162842 16,14.605468273162842 16,14.515623569488525 C16,14.402343273162842 15.98046875,14.218750476837158 15.94140625,13.968750476837158 zM8.460938453674316,8.507812023162842 C8.37109375,8.507812023162842 8.203125,8.507812023162842 7.957030773162842,8.503905773162842 C7.710937976837158,8.500000476837158 7.328125,8.496093273162842 6.8125,8.488280773162842 C6.296875,8.480468273162842 5.804687976837158,8.476562023162842 5.335937976837158,8.468750476837158 L6.972655773162842,4.140624046325684 C7.222655773162842,4.648437023162842 7.515625,5.324217796325684 7.855469226837158,6.171874046325684 C8.242188453674316,7.105467796325684 8.53515625,7.878905773162842 8.742188453674316,8.488280773162842 zM8.460938453674316,8.507812023162842 " id="svg_1"/>
</g></g></svg>